Coordinates
version=1
nRows=10
nColumns=40
inDegrees=yes

Units are S.I. units (second, meters, Newtons, ...)
Angles are in degrees.

endheader
time	pelvis_tilt	pelvis_list	pelvis_rotation	pelvis_tx	pelvis_ty	pelvis_tz	hip_flexion_r	hip_adduction_r	hip_rotation_r	knee_angle_r	knee_angle_r_beta	ankle_angle_r	subtalar_angle_r	mtp_angle_r	hip_flexion_l	hip_adduction_l	hip_rotation_l	knee_angle_l	knee_angle_l_beta	ankle_angle_l	subtalar_angle_l	mtp_angle_l	lumbar_extension	lumbar_bending	lumbar_rotation	arm_flex_r	arm_add_r	arm_rot_r	elbow_flex_r	pro_sup_r	wrist_flex_r	wrist_dev_r	arm_flex_l	arm_add_l	arm_rot_l	elbow_flex_l	pro_sup_l	wrist_flex_l	wrist_dev_l
      0.00000000	     -0.00426409	      0.93072441	     -6.06625092	     -1.15666072	      0.89159748	      0.99291093	      0.61048988	     -6.72661722	     -9.77297158	    -48.17579853	     -0.84082630	    -17.21503618	    -12.65658037	     14.86477503	     15.67684902	     -2.66348263	     15.55370252	    -14.45413869	     -0.25227231	     -1.21511695	      0.94237162	     -3.68866220	     -7.99387584	     -1.68415173	      0.93875535	     13.43075884	     -7.30369520	     15.31086314	     16.00743503	     89.95437384	      0.00000000	      0.00000000	      0.75365083	      8.36328875	    -18.41369683	     11.45183182	     89.95437384	      0.00000000	      0.00000000
      0.01000000	      0.18346327	      1.02942652	     -5.86942401	     -1.14710321	      0.89262611	      0.99209453	      1.82888481	     -6.86400522	     -9.28626597	    -50.48589464	     -0.88114509	    -17.50947668	    -13.43728230	     14.77577420	     14.62522050	     -2.99239491	     15.48622194	    -14.14136193	     -0.24681333	     -0.61779883	      0.38892202	     -3.80859057	     -8.18219703	     -1.73383015	      0.57931265	     13.20848242	     -7.22026610	     15.36828093	     15.63127351	     89.95437384	      0.00000000	      0.00000000	      1.40845107	      8.52013303	    -18.34143928	     11.87027120	     89.95437384	      0.00000000	      0.00000000
      0.02000000	      0.22758431	      1.28619808	     -5.75924110	     -1.13782370	      0.89311929	      0.99133358	      3.35427647	     -7.11227828	     -8.74788221	    -52.93044589	     -0.92381056	    -16.54168974	    -14.45407852	     14.56321209	     13.78888800	     -3.42271399	     15.78288155	    -13.85334869	     -0.24178655	     -0.18080484	     -0.11672445	     -3.90070984	     -8.22013386	     -1.95249623	      0.25724563	     12.91131800	     -7.16859232	     15.36731575	     15.47357832	     89.95437384	      0.00000000	      0.00000000	      1.98234440	      8.76662275	    -18.24610766	     12.53150771	     89.95437384	      0.00000000	      0.00000000
      0.03000000	      0.38332817	      1.44089313	     -5.63918703	     -1.12876981	      0.89362824	      0.99051692	      4.78085525	     -7.29457603	     -8.34606578	    -55.18807949	     -0.96321369	    -15.29371594	    -15.03135023	     14.29763831	     12.87899119	     -3.73118856	     16.00950762	    -13.67566358	     -0.23868536	      0.30172070	     -0.68798348	     -4.00994033	     -8.43264001	     -2.03516713	      0.00493832	     12.68276781	     -7.16614202	     15.33317054	     15.24623591	     89.95437384	      0.00000000	      0.00000000	      2.71443980	      8.93806653	    -18.10181357	     13.07443731	     89.95437384	      0.00000000	      0.00000000
      0.04000000	      0.61304738	      1.59628728	     -5.55709420	     -1.11975914	      0.89416961	      0.98979810	      6.14297194	     -7.48566306	     -8.02109521	    -57.20741541	     -0.99845776	    -14.06062586	    -15.41574069	     14.06017530	     11.87498440	     -4.03528887	     16.25276206	    -13.47820562	     -0.23523907	      0.77007985	     -1.30011731	     -4.12047336	     -8.72754166	     -2.14060891	     -0.20054960	     12.46866920	     -7.17159199	     15.26652399	     15.00192559	     89.95437384	      0.00000000	      0.00000000	      3.51145377	      9.11790314	    -17.93715893	     13.57456230	     89.95437384	      0.00000000	      0.00000000
      0.05000000	      0.90812355	      1.71137735	     -5.47235384	     -1.11080212	      0.89476182	      0.98914153	      7.40523334	     -7.63290175	     -7.76212904	    -58.95218586	     -1.02890974	    -13.02234290	    -15.52709095	     13.84272152	     10.82679411	     -4.31371074	     16.46418600	    -13.31266936	     -0.23234991	      1.24100278	     -1.85060319	     -4.23269644	     -9.11116841	     -2.19968397	     -0.37023202	     12.26287831	     -7.19055442	     15.17614682	     14.73516269	     89.95437384	      0.00000000	      0.00000000	      4.36426284	      9.30271507	    -17.69136304	     14.11211632	     89.95437384	      0.00000000	      0.00000000
      0.06000000	      1.21217216	      1.53271455	     -5.11923857	     -1.10199479	      0.89550250	      0.98833298	      8.51341370	     -7.45866917	     -7.83730262	    -60.28039919	     -1.05209144	    -12.65540894	    -15.33580334	     13.57106385	      9.89212567	     -4.25957379	     16.53508812	    -13.42359289	     -0.23428589	      1.48898023	     -1.95716954	     -4.22741433	     -9.57549573	     -1.90243208	     -0.79371764	     12.00316557	     -7.27121823	     15.11510784	     14.73032815	     89.95437384	      0.00000000	      0.00000000	      5.25418648	      9.46353897	    -17.57242939	     14.62625189	     89.95437384	      0.00000000	      0.00000000
      0.07000000	      1.66156234	      1.85207819	     -5.24227662	     -1.09277709	      0.89620859	      0.98803125	      9.60211957	     -7.73608442	     -7.29578538	    -61.59121003	     -1.07496941	    -10.99948486	    -15.21281009	     13.51393823	      8.55235367	     -4.78940616	     16.64385572	    -13.02306791	     -0.22729541	      2.09290181	     -2.68335661	     -4.38189593	    -10.02570615	     -2.22561372	     -0.74581593	     11.81177867	     -7.20472824	     14.68404308	     14.28431222	     89.95437384	      0.00000000	      0.00000000	      6.14680821	      9.62175502	    -17.23676780	     15.15364944	     89.95437384	      0.00000000	      0.00000000
      0.08000000	      1.98658558	      1.72592909	     -5.00236094	     -1.08371864	      0.89699680	      0.98739744	     10.61872980	     -7.48210787	     -7.16799155	    -62.43072085	     -1.08962163	    -10.20546935	    -15.18971864	     13.29516199	      7.50495864	     -4.83304573	     16.36782625	    -13.00996447	     -0.22706672	      2.73232409	     -2.94533489	     -4.46071533	    -10.40285121	     -1.98896492	     -0.97024428	     11.54262989	     -7.28792309	     14.63211767	     14.02501649	     89.95437384	      0.00000000	      0.00000000	      7.09795623	      9.70536186	    -17.05022996	     15.56193697	     89.95437384	      0.00000000	      0.00000000
      0.09000000	      2.29837429	      1.57404602	     -4.84833022	     -1.07481128	      0.89780481	      0.98701792	     11.63666212	     -7.06994862	     -6.89505814	    -62.98397709	     -1.09927778	     -9.34029981	    -15.02033636	     13.04995255	      6.44383950	     -4.82199646	     16.12699479	    -12.92561671	     -0.22559457	      3.33338633	     -3.09181750	     -4.50140199	    -10.75803804	     -1.73832280	     -1.14417618	     11.28188445	     -7.35351268	     14.56880351	     13.82956024	     89.95437384	      0.00000000	      0.00000000	      8.02527370	      9.80938703	    -17.03051382	     15.98960001	     89.95437384	      0.00000000	      0.00000000
